# xmcd
#
# Track frame offsets:
#	150
#	31917
#	78389
#	101654
#	118623
#	135232
#	145210
#	156324
#	171375
#	207922
#	231246
#	253557
#
# Disc length: 3710 seconds
#
# Revision: 0
# Processed by: cddbd v1.5.2PL0 Copyright (c) Steve Scherf et al.
# Submitted via: EasyCDDAExtractor 15.2.5.1
#
DISCID=a00e7c0c
DTITLE=Blasmusik Tullnberbach - Vielfalt im Wienerwald
DYEAR=2014
DGENRE=Alpenländische Volksmusik
TTITLE0=Leichte Kavallerie (Franz von Suppe)
TTITLE1=Geschichten aus dem Wienerwald (Johann Strauß)
TTITLE2=Im Krapfenwaldl (Johann Strauß)
TTITLE3=Anfahrt zum Schloss (Schönbrunnersuite No.1)
TTITLE4=Gloriette (Schönbrunner Suite No.2)
TTITLE5=Jagdschloss Schönbrunn (Schönbrunner Suite No.3)
TTITLE6=Gemischter Satz (Peter Zepelt)
TTITLE7=Pressbaumer Marsch (Babaschek)
TTITLE8=Moment for Morricone
TTITLE9=Batman
TTITLE10=Birdland
TTITLE11=Gonna Fly Now (Theme from Rocky)
EXTD=
EXTT0=
EXTT1=
EXTT2=
EXTT3=
EXTT4=
EXTT5=
EXTT6=
EXTT7=
EXTT8=
EXTT9=
EXTT10=
EXTT11=
PLAYORDER=
